<svg width="20" height="21" viewBox="0 0 20 21" fill="none" xmlns="http://www.w3.org/2000/svg">
<g clip-path="url(#clip0_29_404)">
<g clip-path="url(#clip1_29_404)">
<path d="M3.98626 10.1809H7.3787C8.31161 10.1809 9.07491 9.41757 9.07491 8.48465V5.09221C9.07491 4.1593 8.31161 3.396 7.3787 3.396H3.98626C3.05334 3.396 2.29004 4.1593 2.29004 5.09221V8.48465C2.29004 9.41757 3.05334 10.1809 3.98626 10.1809ZM3.98626 5.09221H7.3787V8.48465H3.98626V5.09221Z" fill="#434343"/>
<path d="M12.4675 18.6624H15.8599C16.7928 18.6624 17.5562 17.899 17.5562 16.9661V13.5737C17.5562 12.6408 16.7928 11.8774 15.8599 11.8774H12.4675C11.5346 11.8774 10.7712 12.6408 10.7712 13.5737V16.9661C10.7712 17.899 11.5346 18.6624 12.4675 18.6624ZM12.4675 13.5737H15.8599V16.9661H12.4675V13.5737Z" fill="#434343"/>
<path d="M3.98626 18.6624H7.3787C8.31161 18.6624 9.07491 17.899 9.07491 16.9661V13.5737C9.07491 12.6408 8.31161 11.8774 7.3787 11.8774H3.98626C3.05334 11.8774 2.29004 12.6408 2.29004 13.5737V16.9661C2.29004 17.899 3.05334 18.6624 3.98626 18.6624ZM3.98626 13.5737H7.3787V16.9661H3.98626V13.5737Z" fill="#434343"/>
<path d="M10.6206 8.14211L13.1207 10.4352C13.8083 11.0658 14.8867 11.0192 15.5173 10.3316L17.8104 7.83151C18.441 7.14399 18.3944 6.06552 17.7069 5.43494L15.2067 3.14189C14.5192 2.51129 13.4407 2.55789 12.8101 3.24542L10.5171 5.74553C9.88655 6.43306 9.93313 7.51152 10.6206 8.14211ZM16.5603 6.68499L14.2673 9.18511L11.7671 6.89205L14.0602 4.39194L16.5603 6.68499Z" fill="#434343"/>
</g>
</g>
<defs>
<clipPath id="clip0_29_404">
<rect width="20" height="20" fill="white" transform="translate(0.000488281 0.486816)"/>
</clipPath>
<clipPath id="clip1_29_404">
<rect width="20" height="20" fill="white" transform="translate(0.000488281 0.486816)"/>
</clipPath>
</defs>
</svg>
