<svg width="24" height="25" viewBox="0 0 24 25" fill="none" xmlns="http://www.w3.org/2000/svg">
<rect x="0.000488281" y="0.886719" width="24" height="24" rx="12" fill="#0067C5" fill-opacity="0.1"/>
<g clip-path="url(#clip0_29_381)">
<g clip-path="url(#clip1_29_381)">
<g clip-path="url(#clip2_29_381)">
<path d="M9.92762 6.88672C10.7814 6.88672 11.2082 7.26732 11.2082 8.02851C11.2082 8.56582 10.8971 9.0509 10.2749 9.48373C9.13176 10.3196 8.56018 11.1628 8.56018 12.0136C8.56018 12.521 8.893 13.1479 9.55863 13.8942C10.2387 14.6255 10.5788 15.4016 10.5788 16.2225C10.5788 17.0434 10.3328 17.6927 9.8408 18.1703C9.36328 18.6479 8.71935 18.8867 7.90902 18.8867C7.11315 18.8867 6.42581 18.521 5.847 17.7897C5.28266 17.0583 5.00049 16.2151 5.00049 15.2598C5.00049 12.6628 5.67336 10.521 7.01909 8.83448C7.65579 8.02851 8.2346 7.50612 8.75553 7.26732C9.29093 7.01358 9.68163 6.88672 9.92762 6.88672ZM17.7199 6.88672C18.5736 6.88672 19.0005 7.26732 19.0005 8.02851C19.0005 8.56582 18.6894 9.0509 18.0672 9.48373C16.924 10.3196 16.3524 11.1628 16.3524 12.0136C16.3524 12.521 16.6853 13.1479 17.3509 13.8942C18.031 14.6255 18.371 15.4016 18.371 16.2225C18.371 17.0434 18.125 17.6927 17.6331 18.1703C17.1555 18.6479 16.5116 18.8867 15.7013 18.8867C14.9054 18.8867 14.2181 18.521 13.6392 17.7897C13.0749 17.0583 12.7927 16.2151 12.7927 15.2598C12.7927 12.6628 13.4656 10.521 14.8113 8.83448C15.448 8.02851 16.0269 7.50612 16.5478 7.26732C17.0832 7.01358 17.4739 6.88672 17.7199 6.88672Z" fill="#0067C5"/>
</g>
</g>
</g>
<defs>
<clipPath id="clip0_29_381">
<rect width="14" height="12" fill="white" transform="translate(5.00049 6.88672)"/>
</clipPath>
<clipPath id="clip1_29_381">
<rect width="14" height="12" fill="white" transform="translate(5.00049 6.88672)"/>
</clipPath>
<clipPath id="clip2_29_381">
<rect width="14" height="12" fill="white" transform="translate(5.00049 6.88672)"/>
</clipPath>
</defs>
</svg>
