<svg width="19" height="21" viewBox="0 0 19 21" fill="none" xmlns="http://www.w3.org/2000/svg">
<path d="M9.45631 17.3992L17.0004 6.62985L9.45631 17.3992ZM9.45631 17.3992L1.51514 6.62985L9.45631 17.3992ZM9.45631 17.3992L6.80925 6.62985L9.45631 17.3992ZM9.45631 17.3992L12.1034 6.62985L9.45631 17.3992ZM17.0004 6.62985L14.4857 2.77417L17.0004 6.62985ZM17.0004 6.62985H1.51514H17.0004ZM14.4857 2.77417L12.1034 6.62985L14.4857 2.77417ZM14.4857 2.77417H9.45631H14.4857ZM4.16219 2.77417L1.51514 6.62985L4.16219 2.77417ZM4.16219 2.77417L6.80925 6.62985L4.16219 2.77417ZM4.16219 2.77417H9.45631H4.16219ZM6.80925 6.62985L9.45631 2.77417L6.80925 6.62985ZM12.1034 6.62985L9.45631 2.77417L12.1034 6.62985Z" fill="white"/>
<path d="M9.45631 17.3992L17.0004 6.62985M9.45631 17.3992L1.51514 6.62985M9.45631 17.3992L6.80925 6.62985M9.45631 17.3992L12.1034 6.62985M17.0004 6.62985L14.4857 2.77417M17.0004 6.62985H1.51514M1.51514 6.62985L4.16219 2.77417M6.80925 6.62985L4.16219 2.77417M6.80925 6.62985L9.45631 2.77417M12.1034 6.62985L14.4857 2.77417M12.1034 6.62985L9.45631 2.77417M14.4857 2.77417H9.45631M9.45631 2.77417H4.16219" stroke="white" stroke-width="0.9" stroke-linejoin="round"/>
</svg>
