<svg width="17" height="17" viewBox="0 0 17 17" fill="none" xmlns="http://www.w3.org/2000/svg">
<g clip-path="url(#clip0_29_29)">
<path d="M8.06006 16.8867C12.4783 16.8867 16.0601 13.305 16.0601 8.88672C16.0601 4.46844 12.4783 0.886719 8.06006 0.886719C3.64178 0.886719 0.0600586 4.46844 0.0600586 8.88672C0.0600586 13.305 3.64178 16.8867 8.06006 16.8867Z" fill="#499557"/>
<path d="M13.1511 8.88681C13.1511 6.07518 10.8718 3.7959 8.06014 3.7959C5.24851 3.7959 2.96924 6.07518 2.96924 8.88681C2.96924 11.6984 5.24851 13.9777 8.06014 13.9777C10.8718 13.9777 13.1511 11.6984 13.1511 8.88681Z" fill="#499557"/>
<path fill-rule="evenodd" clip-rule="evenodd" d="M5.32729 4.98404C5.38663 4.8976 5.48475 4.84595 5.58961 4.84595H10.8452C10.9527 4.84595 11.053 4.90025 11.1117 4.99031L12.3919 6.9532C12.4629 7.06205 12.4606 7.20313 12.386 7.30957L8.54539 12.7921C8.48662 12.876 8.39107 12.9265 8.28866 12.9277C8.18623 12.929 8.08949 12.8809 8.0287 12.7984L3.98593 7.31585C3.90547 7.20676 3.90298 7.05868 3.9797 6.94693L5.32729 4.98404ZM5.58961 5.72629L6.33281 6.80884H4.84641L5.58961 5.72629ZM4.87197 7.4452L7.59565 11.1389L6.68775 7.4452H4.87197ZM7.54159 6.80884L8.28479 5.72629L9.02801 6.80884H7.54159ZM9.22654 7.4452L8.28479 11.2766L7.34306 7.4452H9.22654ZM8.99955 11.0347L9.88185 7.4452H11.514L8.99955 11.0347ZM11.538 6.80884H10.203L10.8525 5.75771L11.538 6.80884ZM10.2746 5.48231H8.88918L9.61837 6.5444L10.2746 5.48231ZM7.68039 5.48231H6.19399L6.93719 6.56485L7.68039 5.48231Z" fill="white"/>
</g>
<defs>
<clipPath id="clip0_29_29">
<rect width="16" height="16" fill="white" transform="translate(0.0600586 0.886719)"/>
</clipPath>
</defs>
</svg>
