<svg width="24" height="25" viewBox="0 0 24 25" fill="none" xmlns="http://www.w3.org/2000/svg">
<rect x="0.000488281" y="0.886719" width="24" height="24" rx="12" fill="#EF414C" fill-opacity="0.1"/>
<g clip-path="url(#clip0_29_341)">
<g clip-path="url(#clip1_29_341)">
<g clip-path="url(#clip2_29_341)">
<path fill-rule="evenodd" clip-rule="evenodd" d="M4.23361 14.7298C4.36537 14.8264 4.53667 14.8748 4.74749 14.8748C4.97589 14.8748 5.15158 14.8176 5.27455 14.7035C5.39753 14.5893 5.51612 14.4048 5.63031 14.15L6.27814 12.6216H10.8095L11.4675 14.15C11.5729 14.396 11.6915 14.5805 11.8233 14.7035C11.9638 14.8176 12.1571 14.8748 12.403 14.8748C12.6051 14.8748 12.7676 14.8308 12.8905 14.743C13.0135 14.6464 13.0882 14.5146 13.1145 14.3477C13.1409 14.1808 13.1058 13.9963 13.0091 13.7943L9.51737 6.08604C9.40318 5.8313 9.26263 5.65122 9.09573 5.54581C8.93761 5.43161 8.75753 5.37451 8.55549 5.37451C8.34467 5.37451 8.15581 5.43161 7.9889 5.54581C7.83078 5.65122 7.69463 5.8313 7.58043 6.08604L4.10185 13.7943C4.014 13.9963 3.98326 14.1808 4.00961 14.3477C4.03596 14.5058 4.11063 14.6332 4.23361 14.7298ZM6.8617 11.2776L8.52914 7.31146H8.55549L10.2348 11.2776H6.8617ZM19.3927 13.5236C19.7443 13.1408 19.719 12.5454 19.3361 12.1938C18.9532 11.8422 18.3579 11.8675 18.0063 12.2504L12.6023 18.1347L10.876 16.5003C10.4986 16.1428 9.90288 16.1591 9.5455 16.5365C9.18811 16.914 9.20437 17.5097 9.58182 17.8671L12.002 20.1586C12.185 20.332 12.43 20.4246 12.6819 20.4159C12.9339 20.407 13.1718 20.2976 13.3423 20.1119L19.3927 13.5236Z" fill="#EF414C"/>
</g>
</g>
</g>
<defs>
<clipPath id="clip0_29_341">
<rect width="16" height="16" fill="white" transform="translate(4.00049 4.88672)"/>
</clipPath>
<clipPath id="clip1_29_341">
<rect width="16" height="16" fill="white" transform="translate(4.00049 4.88672)"/>
</clipPath>
<clipPath id="clip2_29_341">
<rect width="16" height="15.0588" fill="white" transform="translate(4.00049 5.35742)"/>
</clipPath>
</defs>
</svg>
