<svg width="25" height="25" viewBox="0 0 25 25" fill="none" xmlns="http://www.w3.org/2000/svg">
<path d="M13.0601 3.88672C8.09006 3.88672 4.06006 7.91672 4.06006 12.8867H1.06006L4.95006 16.7767L5.02006 16.9167L9.06006 12.8867H6.06006C6.06006 9.01672 9.19006 5.88672 13.0601 5.88672C16.9301 5.88672 20.0601 9.01672 20.0601 12.8867C20.0601 16.7567 16.9301 19.8867 13.0601 19.8867C11.1301 19.8867 9.38006 19.0967 8.12006 17.8267L6.70006 19.2467C8.33006 20.8767 10.5701 21.8867 13.0601 21.8867C18.0301 21.8867 22.0601 17.8567 22.0601 12.8867C22.0601 7.91672 18.0301 3.88672 13.0601 3.88672ZM12.0601 8.88672V13.8867L16.3101 16.4067L17.0801 15.1267L13.5601 13.0367V8.88672H12.0601Z" fill="#5F6368"/>
</svg>
