<svg width="25" height="25" viewBox="0 0 25 25" fill="none" xmlns="http://www.w3.org/2000/svg">
<path d="M20.0601 7.68652V17.6865H4.06006V7.68652H20.0601ZM20.0601 5.68652H4.06006C2.96006 5.68652 2.07006 6.58652 2.07006 7.68652L2.06006 17.6865C2.06006 18.7865 2.96006 19.6865 4.06006 19.6865H20.0601C21.1601 19.6865 22.0601 18.7865 22.0601 17.6865V7.68652C22.0601 6.58652 21.1601 5.68652 20.0601 5.68652ZM11.0601 8.68652H13.0601V10.6865H11.0601V8.68652ZM11.0601 11.6865H13.0601V13.6865H11.0601V11.6865ZM8.06006 8.68652H10.0601V10.6865H8.06006V8.68652ZM8.06006 11.6865H10.0601V13.6865H8.06006V11.6865ZM5.06006 11.6865H7.06006V13.6865H5.06006V11.6865ZM5.06006 8.68652H7.06006V10.6865H5.06006V8.68652ZM8.06006 14.6865H16.0601V16.6865H8.06006V14.6865ZM14.0601 11.6865H16.0601V13.6865H14.0601V11.6865ZM14.0601 8.68652H16.0601V10.6865H14.0601V8.68652ZM17.0601 11.6865H19.0601V13.6865H17.0601V11.6865ZM17.0601 8.68652H19.0601V10.6865H17.0601V8.68652Z" fill="#5F6368"/>
</svg>
