<svg width="24" height="24" viewBox="0 0 24 24" fill="none" xmlns="http://www.w3.org/2000/svg">
<path d="M8.73191 15.8158L10.6564 20.2147C10.7875 20.5143 11.2125 20.5143 11.3436 20.2147L13.2681 15.8158C13.3097 15.7207 13.3889 15.647 13.4868 15.6125L18.0744 13.9933C18.399 13.8788 18.4107 13.424 18.0924 13.293L13.4855 11.396C13.3885 11.3561 13.3127 11.2773 13.2764 11.1789L11.3519 5.9551C11.2314 5.62795 10.7686 5.62795 10.6481 5.9551L8.72357 11.1789C8.6873 11.2773 8.61147 11.3561 8.51447 11.396L3.90758 13.293C3.58929 13.424 3.60096 13.8788 3.92556 13.9933L8.51316 15.6125C8.61108 15.647 8.69029 15.7207 8.73191 15.8158Z" fill="#DD7F3B"/>
<path d="M17.8584 6.39069L18.8679 8.69797C18.9183 8.8132 19.0817 8.8132 19.1321 8.69797L20.1416 6.39069C20.1576 6.3541 20.188 6.32579 20.2257 6.3125L22.644 5.45897C22.7689 5.41491 22.7734 5.24001 22.6509 5.1896L20.2252 4.19077C20.1879 4.17541 20.1587 4.14512 20.1448 4.10726L19.1353 1.36735C19.089 1.24152 18.911 1.24152 18.8647 1.36735L17.8552 4.10726C17.8413 4.14512 17.8121 4.17541 17.7748 4.19077L15.3491 5.1896C15.2266 5.24001 15.2311 5.41491 15.356 5.45897L17.7743 6.3125C17.812 6.32579 17.8424 6.3541 17.8584 6.39069Z" fill="#DD7F3B"/>
</svg>
