<svg width="131" height="36" viewBox="0 0 131 36" fill="none" xmlns="http://www.w3.org/2000/svg">
<path d="M49.9082 26.1023C50.8129 26.3398 51.7535 26.6604 52.7291 27.0648C54.7673 27.9045 56.2388 28.3242 57.1438 28.3242C57.4507 28.3242 57.9151 28.2451 58.5366 28.0867V28.7045C57.6554 29.1639 57.0023 29.5998 56.5773 30.0117C55.8926 29.9245 55.2748 29.8057 54.7241 29.6554C54.1732 29.5126 53.3351 29.2314 52.2098 28.8117C50.3526 28.1304 49.1054 27.7898 48.4679 27.7898C48.287 27.7898 48.0941 27.8292 47.8898 27.9085C47.6929 27.9876 47.1932 28.2529 46.3904 28.7045V27.9201C47.736 27.0092 48.7001 26.4032 49.2826 26.102C47.5041 26.102 45.9854 25.7495 44.7263 25.0445C43.4673 24.3314 42.4835 23.3173 41.7754 22.0023C41.067 20.687 40.7129 19.146 40.7129 17.3795C40.7129 14.797 41.547 12.7095 43.2154 11.117C44.8835 9.52448 47.1066 8.72823 49.8845 8.72823C52.6073 8.72823 54.7398 9.46886 56.2823 10.9507C57.8323 12.4242 58.6076 14.3889 58.6076 16.8448C58.6076 18.7304 58.151 20.386 57.2382 21.812C56.3332 23.2301 55.1451 24.3195 53.6735 25.0801C52.6191 25.627 51.3638 25.9679 49.9082 26.1023ZM43.2035 16.4167C43.2035 18.1992 43.5063 19.752 44.1123 21.0751C44.7182 22.3979 45.5288 23.3923 46.5438 24.0579C47.5591 24.7154 48.7198 25.0442 50.026 25.0442C51.2379 25.0442 52.2963 24.7629 53.2013 24.2004C54.1063 23.6379 54.8185 22.802 55.3379 21.6929C55.8573 20.5839 56.117 19.2292 56.117 17.6289C56.117 15.9492 55.8298 14.5154 55.2551 13.327C54.6807 12.1385 53.8938 11.2473 52.8945 10.6532C51.8951 10.051 50.7107 9.75011 49.3416 9.75011C48.0904 9.75011 47.0123 10.0157 46.1073 10.5464C45.2023 11.077 44.4901 11.8535 43.9707 12.8754C43.4591 13.8973 43.2035 15.0779 43.2035 16.4167ZM68.5941 25.8764L68.7357 23.7373L68.0391 24.4979C67.4963 25.092 66.9413 25.512 66.3748 25.7573C65.8163 25.9951 65.1238 26.1139 64.2973 26.1139C63.5891 26.1139 62.9795 25.9635 62.4679 25.6623C61.9563 25.3614 61.5826 24.9732 61.3463 24.4979C61.1182 24.0145 61.0041 23.2542 61.0041 22.216C61.0041 21.6773 61.016 21.0517 61.0395 20.3385L61.0751 18.4254C61.0751 17.0864 61.0357 16.3417 60.957 16.191C60.886 16.0407 60.6382 15.9654 60.2132 15.9654H59.1629V15.312C60.2329 15.2167 61.2207 15.0185 62.1254 14.7176L63.1051 14.3492C63.2391 14.3492 63.306 14.4482 63.306 14.6464L63.2232 15.8585C63.1132 17.5379 63.0579 19.0989 63.0579 20.5407C63.0579 21.9823 63.117 22.9054 63.2351 23.3095C63.3532 23.7054 63.601 24.0382 63.9788 24.3076C64.3563 24.5692 64.8166 24.6998 65.3598 24.6998C66.0916 24.6998 66.7604 24.4623 67.3663 23.9867C67.9801 23.5117 68.3816 23.0323 68.5704 22.5492C68.6726 22.2717 68.7238 21.4357 68.7238 20.0414C68.7238 17.6964 68.6807 16.421 68.5941 16.2151C68.5154 16.0485 68.1613 15.9654 67.5316 15.9654H66.5991V15.312C67.4098 15.2167 68.0982 15.1057 68.6648 14.9792C69.2313 14.8523 69.8295 14.6623 70.4591 14.4089C70.5376 14.3692 70.6085 14.3495 70.6716 14.3495C70.8054 14.3495 70.8723 14.4245 70.8723 14.5751L70.8251 15.6801C70.707 18.3895 70.6479 20.7742 70.6479 22.8342C70.6479 23.9907 70.707 24.6523 70.8251 24.8185C70.9982 25.0642 71.372 25.1873 71.9463 25.1873H72.631V25.8764C71.6473 25.8207 70.8132 25.7932 70.1285 25.7932C69.617 25.7932 69.1054 25.8207 68.5941 25.8764ZM76.3141 9.07292C76.6763 9.07292 76.987 9.20761 77.2466 9.47698C77.5063 9.73854 77.6363 10.0551 77.6363 10.4276C77.6363 10.8001 77.5063 11.117 77.2466 11.3782C76.987 11.6398 76.6763 11.7704 76.3141 11.7704C75.9445 11.7704 75.6295 11.6398 75.3698 11.3782C75.1101 11.117 74.9804 10.8001 74.9804 10.4276C74.9804 10.0554 75.1101 9.73854 75.3698 9.47698C75.6295 9.20761 75.9445 9.07292 76.3141 9.07292ZM77.2585 14.3373L77.5416 14.5154C77.4835 15.1676 77.4481 15.8217 77.4357 16.4764C77.3804 18.7898 77.3529 20.497 77.3529 21.5982C77.3529 22.6282 77.3882 23.5076 77.4591 24.2364C77.4907 24.5217 77.5654 24.7195 77.6835 24.8304C77.8013 24.9414 78.0848 25.0245 78.5332 25.0801L79.336 25.187V25.8764C78.2902 25.8236 77.2432 25.7959 76.196 25.7932C75.2676 25.7932 74.331 25.8207 73.387 25.8764V25.1867L74.402 25.0798C74.7954 25.0479 75.0354 24.9767 75.122 24.8657C75.2163 24.747 75.2754 24.3626 75.2991 23.7132C75.3385 22.707 75.3582 21.3207 75.3582 19.5539C75.3582 18.3257 75.3385 17.3792 75.2991 16.7139C75.2832 16.4682 75.2126 16.2939 75.0866 16.191C74.9685 16.0879 74.697 16.0364 74.2723 16.0364H73.387V15.3354C74.347 15.1926 75.0513 15.062 75.4998 14.9432C75.956 14.8245 76.5423 14.6226 77.2585 14.3373ZM84.0345 8.22917C83.9007 10.5504 83.8338 12.6498 83.8338 14.5276V20.6357C83.8338 23.0598 83.8848 24.4345 83.9873 24.7592C84.0423 24.9257 84.302 25.0326 84.7663 25.0801L85.7695 25.187V25.8764C84.9522 25.8223 84.1335 25.7945 83.3145 25.7932C82.4488 25.7932 81.3157 25.8207 79.9148 25.8764V25.1867L80.9301 25.1035C81.3785 25.0639 81.6341 24.9492 81.6973 24.7589C81.7994 24.4498 81.8507 23.0439 81.8507 20.5401V14.4682L81.8388 12.1864L81.8035 10.6298C81.8035 10.2417 81.7601 10.0039 81.6735 9.91667C81.5476 9.79011 81.2841 9.72667 80.8829 9.72667H79.9148V9.01354C81.5516 8.86292 82.8579 8.55417 83.8338 8.08667L84.0345 8.22917ZM90.586 8.22917C90.4523 10.5504 90.3854 12.6498 90.3854 14.5276V20.6357C90.3854 23.0598 90.4363 24.4345 90.5388 24.7592C90.5938 24.9257 90.8535 25.0326 91.3179 25.0801L92.321 25.187V25.8764C91.5038 25.8223 90.685 25.7945 89.866 25.7932C89.0004 25.7932 87.8673 25.8207 86.4663 25.8764V25.1867L87.4816 25.1035C87.9301 25.0639 88.1857 24.9492 88.2488 24.7589C88.351 24.4498 88.4023 23.0439 88.4023 20.5401V14.4682L88.3904 12.1864L88.3551 10.6298C88.3551 10.2417 88.3116 10.0039 88.2251 9.91667C88.0995 9.79011 87.8357 9.72667 87.4345 9.72667H86.4663V9.01354C88.1032 8.86292 89.4095 8.55417 90.3854 8.08667L90.586 8.22917Z" fill="#66AA4C"/>
<path d="M94.7974 8.96973H100.768C101.512 8.96973 102.2 9.05723 102.83 9.23254C103.478 9.40754 104.028 9.67066 104.481 10.021C104.95 10.3554 105.314 10.7935 105.573 11.335C105.848 11.8607 105.985 12.4819 105.985 13.1988C105.985 14.1704 105.71 14.9666 105.16 15.5879C104.61 16.1932 103.898 16.6391 103.025 16.926V16.9738C103.542 17.0057 104.028 17.141 104.481 17.38C104.928 17.5984 105.325 17.9076 105.646 18.2879C105.985 18.6541 106.253 19.0844 106.447 19.5782C106.641 20.0719 106.738 20.6054 106.738 21.1788C106.738 21.9435 106.576 22.6204 106.253 23.21C105.945 23.7832 105.516 24.2691 104.966 24.6672C104.416 25.0654 103.777 25.3682 103.049 25.575C102.321 25.7822 101.536 25.8857 100.695 25.8857H94.7974V8.96973ZM97.127 15.9941H100.306C100.743 15.9941 101.156 15.9544 101.544 15.8747C101.933 15.7791 102.272 15.6279 102.564 15.4207C102.851 15.2176 103.085 14.9468 103.243 14.6322C103.421 14.3135 103.51 13.9235 103.51 13.4616C103.51 12.7925 103.292 12.211 102.855 11.7172C102.418 11.2235 101.73 10.9766 100.792 10.9766H97.127V15.9941ZM97.127 23.8785H100.549C100.939 23.8758 101.329 23.844 101.714 23.7832C102.14 23.7076 102.55 23.5623 102.928 23.3532C103.302 23.1282 103.624 22.8268 103.874 22.4688C104.133 22.1029 104.262 21.6169 104.262 21.0116C104.262 20.0082 103.931 19.2594 103.267 18.7657C102.604 18.2563 101.706 18.001 100.574 18.001H97.127V23.8788V23.8785ZM110.812 20.2232C110.812 20.7966 110.901 21.33 111.08 21.8241C111.257 22.3019 111.508 22.716 111.832 23.0663C112.155 23.4007 112.552 23.6716 113.021 23.8788C113.49 24.07 114.016 24.1654 114.599 24.1654C115.181 24.1654 115.707 24.07 116.176 23.8788C116.645 23.6716 117.042 23.4007 117.365 23.0663C117.689 22.716 117.94 22.3019 118.118 21.8241C118.295 21.3304 118.385 20.7966 118.385 20.2232C118.385 19.6497 118.295 19.1241 118.118 18.6463C117.94 18.1525 117.689 17.7385 117.365 17.4038C117.042 17.0535 116.645 16.7825 116.176 16.5913C115.707 16.3844 115.181 16.281 114.599 16.281C114.016 16.281 113.49 16.3844 113.021 16.5916C112.552 16.7825 112.155 17.0535 111.832 17.4041C111.508 17.7385 111.257 18.1525 111.08 18.6463C110.901 19.1241 110.812 19.6497 110.812 20.2232ZM108.483 20.2232C108.483 19.395 108.636 18.6222 108.944 17.9057C109.259 17.2005 109.704 16.5604 110.254 16.0182C110.804 15.4766 111.451 15.0544 112.196 14.7516C112.94 14.4332 113.741 14.2738 114.599 14.2738C115.456 14.2738 116.257 14.4332 117.001 14.7519C117.745 15.0544 118.393 15.4766 118.943 16.0182C119.491 16.557 119.928 17.1983 120.229 17.9057C120.553 18.6222 120.715 19.395 120.715 20.2232C120.715 21.0513 120.553 21.8319 120.229 22.5647C119.928 23.2721 119.491 23.9134 118.943 24.4522C118.393 24.9779 117.745 25.4 117.001 25.7185C116.257 26.0213 115.456 26.1725 114.599 26.1725C113.741 26.1725 112.94 26.0213 112.196 25.7185C111.451 25.3997 110.804 24.9779 110.254 24.4522C109.704 23.91 109.259 23.2699 108.944 22.5647C108.636 21.8319 108.483 21.0513 108.483 20.2232ZM129.13 16.4241H125.999V21.5616C125.999 21.88 126.007 22.1985 126.024 22.5172C126.036 22.8031 126.094 23.0853 126.193 23.3535C126.307 23.5922 126.468 23.7913 126.679 23.9507C126.905 24.0941 127.229 24.1657 127.65 24.1657C127.908 24.1657 128.175 24.1419 128.45 24.0941C128.714 24.0502 128.969 23.9613 129.203 23.8313V25.7907C128.944 25.9338 128.604 26.0294 128.184 26.0772C127.779 26.141 127.464 26.1729 127.237 26.1729C126.395 26.1729 125.74 26.0613 125.271 25.8385C124.818 25.5994 124.478 25.2966 124.252 24.9304C124.041 24.5641 123.912 24.1579 123.864 23.7116C123.831 23.2504 123.815 22.7883 123.815 22.326V16.4241H121.291V14.5607H123.815V11.3829H125.999V14.5607H129.13V16.4241Z" fill="#479455"/>
<path d="M17.9004 34.6492C27.0473 34.6492 34.4629 27.2339 34.4629 18.0879C34.4657 8.9398 27.0498 1.52417 17.9004 1.52417C8.75352 1.52417 1.33789 8.93948 1.33789 18.0854C1.33789 27.2335 8.75352 34.6492 17.9004 34.6492Z" fill="#499557"/>
<path fill-rule="evenodd" clip-rule="evenodd" d="M21.4288 5.55145C20.3075 6.74583 18.4304 9.88739 17.7129 12.4546C17.3985 12.2461 17.041 11.6858 17.2766 10.5968C17.2822 10.5805 17.2985 10.5671 17.3147 10.5724L17.7507 10.6105C17.7832 10.613 17.7994 10.5724 17.775 10.5508L17.385 10.1771C17.3769 10.169 17.3713 10.1608 17.3713 10.1527C17.3875 9.75177 17.4635 8.95833 17.6397 8.75271C17.6504 8.73896 17.6694 8.73896 17.6829 8.74708L18.2544 9.12895C18.2841 9.15083 18.3222 9.1127 18.3004 9.08302L17.8672 8.44114C17.8563 8.43302 17.8563 8.42239 17.8616 8.40864C18.1135 7.89677 18.6335 6.88364 18.845 6.68614C18.8585 6.6727 18.8747 6.67802 18.8882 6.68614L19.3 7.02739C19.3297 7.04927 19.3675 7.02208 19.3541 6.98958L19.0588 6.24458C19.0563 6.23645 19.0563 6.22302 19.0641 6.21489C19.4219 5.69489 20.2669 4.6602 20.906 4.53052C20.9197 4.52489 20.936 4.53302 20.9441 4.54645L21.1716 4.94458C21.1879 4.97708 21.2391 4.96083 21.2338 4.92302L21.1744 4.29739C21.1744 4.28645 21.1769 4.27302 21.1904 4.26489C21.5479 4.07802 22.5285 3.7502 23.7769 3.80989C23.8013 3.80458 23.815 3.82614 23.8094 3.84771L22.97 6.40708C22.9672 6.42333 22.951 6.43145 22.9375 6.43145L22.3119 6.3802C22.2738 6.37458 22.2604 6.42614 22.29 6.44239L22.84 6.77833C22.8588 6.78645 22.8616 6.80802 22.8535 6.82427L22.3144 7.7452C22.3119 7.75333 22.2982 7.76145 22.29 7.76145L21.5344 7.82895C21.4966 7.83427 21.4938 7.88052 21.5263 7.89677L22.0763 8.12427C22.0979 8.13239 22.106 8.15395 22.0925 8.17583L21.5291 9.15864C21.5263 9.16677 21.5129 9.17489 21.5047 9.17489L20.5594 9.25927C20.5522 9.25964 20.5454 9.26237 20.5399 9.26704C20.5344 9.2717 20.5306 9.27804 20.5291 9.28507C20.5275 9.29211 20.5284 9.29945 20.5314 9.30597C20.5345 9.31249 20.5396 9.31782 20.546 9.32114L21.0416 9.58927C21.0579 9.59739 21.0632 9.61927 21.0579 9.63552C20.8629 10.0199 20.4213 10.8243 20.0475 10.9083L19.4382 11.068C19.4057 11.0761 19.4057 11.1277 19.4382 11.1358L19.9419 11.263C19.9607 11.2658 19.9744 11.293 19.9663 11.3093C19.6738 11.9483 19.0725 12.7474 18.0838 12.574C18.6932 10.0365 20.0447 7.61489 21.5994 5.65146L21.6504 5.58677C21.645 5.53802 21.6372 5.48364 21.521 5.48083C21.5074 5.48128 21.4942 5.48497 21.4824 5.49161C21.4706 5.49825 21.4606 5.50763 21.4532 5.51895L21.4288 5.55145ZM22.091 30.7927C22.0911 30.537 22.1926 30.2918 22.3734 30.111C22.5542 29.9302 22.7994 29.8285 23.055 29.8283C23.3107 29.8288 23.5557 29.9306 23.7364 30.1113C23.9172 30.2921 24.0189 30.5371 24.0194 30.7927C24.0116 31.0432 23.9066 31.2809 23.7266 31.4553C23.5466 31.6298 23.3058 31.7273 23.0552 31.7273C22.8046 31.7273 22.5637 31.6298 22.3838 31.4553C22.2038 31.2809 22.0988 31.0432 22.091 30.7927ZM20.3763 24.7855H15.3057V25.7524H20.376L20.3763 24.7855ZM9.06691 23.6155V13.2321C9.06691 12.9774 9.27316 12.7715 9.52754 12.7715H26.2769C26.5316 12.7715 26.7372 12.9777 26.7372 13.2321V23.6155C26.7372 23.8702 26.5316 24.0758 26.2769 24.0758H9.52754C9.46708 24.0759 9.4072 24.064 9.35134 24.0409C9.29547 24.0178 9.24471 23.9839 9.20196 23.9411C9.15921 23.8983 9.1253 23.8476 9.10218 23.7917C9.07906 23.7359 9.06687 23.676 9.06691 23.6155ZM11.735 18.4886C11.7349 18.6843 11.7734 18.8781 11.8482 19.0589C11.923 19.2397 12.0327 19.4039 12.1711 19.5423C12.3094 19.6806 12.4737 19.7904 12.6545 19.8652C12.8353 19.94 13.0291 19.9785 13.2247 19.9783C13.6197 19.9781 13.9985 19.8211 14.2778 19.5417C14.5571 19.2624 14.7142 18.8837 14.7144 18.4886C14.7145 18.293 14.676 18.0993 14.6012 17.9185C14.5263 17.7378 14.4166 17.5735 14.2783 17.4352C14.1399 17.2969 13.9757 17.1872 13.7949 17.1124C13.6141 17.0376 13.4204 16.9991 13.2247 16.9993C13.0291 16.9991 12.8353 17.0376 12.6546 17.1124C12.4738 17.1872 12.3095 17.2969 12.1712 17.4352C12.0328 17.5735 11.9231 17.7378 11.8483 17.9185C11.7734 18.0993 11.735 18.293 11.735 18.4886ZM21.0929 18.4886C21.0927 18.6843 21.1312 18.8781 21.206 19.0589C21.2808 19.2397 21.3905 19.4039 21.5289 19.5423C21.6673 19.6806 21.8315 19.7904 22.0123 19.8652C22.1931 19.94 22.3869 19.9785 22.5825 19.9783C22.9776 19.9781 23.3563 19.8211 23.6356 19.5417C23.9149 19.2624 24.072 18.8837 24.0722 18.4886C24.0723 18.293 24.0338 18.0993 23.959 17.9185C23.8842 17.7378 23.7744 17.5735 23.6361 17.4352C23.4977 17.2969 23.3335 17.1872 23.1527 17.1124C22.9719 17.0376 22.7782 16.9991 22.5825 16.9993C22.3869 16.9991 22.1932 17.0376 22.0124 17.1124C21.8316 17.1872 21.6674 17.2969 21.529 17.4352C21.3907 17.5735 21.2809 17.7378 21.2061 17.9185C21.1312 18.0993 21.0928 18.293 21.0929 18.4886ZM7.04785 30.5921C7.6218 31.0916 8.22995 31.5504 8.86785 31.9652V29.0946C8.34535 29.0946 7.52723 29.5683 7.04785 30.5921ZM17.9038 34.6493C14.9815 34.6518 12.111 33.8779 9.58598 32.4068V29.8286H19.2282V34.5924C18.7877 34.6292 18.3458 34.6482 17.9038 34.6493ZM11.6416 30.6436H10.986C10.7966 30.6436 10.6422 30.7952 10.6422 30.9874C10.6422 31.1771 10.7966 31.3315 10.986 31.3315H17.8279C18.0175 31.3315 18.1716 31.1771 18.1716 30.9877C18.1716 30.798 18.0175 30.644 17.8279 30.644L11.6416 30.6436ZM25.7585 26.4755H10.0491C9.79441 26.4755 9.58879 26.6818 9.58879 26.9361V29.1108H19.946V34.5193C22.1586 34.2479 24.2928 33.5291 26.2188 32.4068V26.9361C26.2188 26.6815 26.0132 26.4755 25.7585 26.4755ZM23.0554 32.469C22.61 32.469 22.183 32.2921 21.8681 31.9772C21.5532 31.6623 21.3763 31.2352 21.3763 30.7899C21.3763 30.3446 21.5532 29.9175 21.8681 29.6026C22.183 29.2877 22.61 29.1108 23.0554 29.1108C23.5007 29.1108 23.9277 29.2877 24.2426 29.6026C24.5575 29.9175 24.7344 30.3446 24.7344 30.7899C24.7344 31.2352 24.5575 31.6623 24.2426 31.9772C23.9277 32.2921 23.5007 32.469 23.0554 32.469ZM26.9357 29.0946C27.4585 29.0946 28.2763 29.5683 28.756 30.5921C28.1806 31.0908 27.5725 31.5505 26.9357 31.968V29.0946Z" fill="white"/>
</svg>
