<svg width="25" height="25" viewBox="0 0 25 25" fill="none" xmlns="http://www.w3.org/2000/svg">
<rect x="0.230469" y="0.886719" width="24" height="24" rx="12" fill="#499557" fill-opacity="0.1"/>
<g clip-path="url(#clip0_29_333)">
<g clip-path="url(#clip1_29_333)">
<g clip-path="url(#clip2_29_333)">
<path fill-rule="evenodd" clip-rule="evenodd" d="M8.30449 8.86411C8.39012 8.9214 8.48352 8.95006 8.58471 8.95006C8.7326 8.95006 8.87271 8.88559 8.98168 8.77816L9.93131 7.60352C10.0636 7.43878 10.0558 7.21675 9.90795 7.05917L8.95833 6.04211C8.78709 5.85588 8.4913 5.8344 8.28893 5.99197C8.08655 6.14954 8.0632 6.42172 8.23444 6.60794L8.4077 6.79395H6.67826C5.87652 6.79395 5.23047 7.38843 5.23047 8.12616V17.3943C5.23047 18.2252 5.96993 18.9056 6.87285 18.9056H11.8233C12.1736 18.9056 12.4616 18.6406 12.4616 18.3183C12.4616 17.996 12.1814 17.7381 11.8311 17.7381H6.88063C6.67047 17.7381 6.49923 17.5805 6.49923 17.3872V8.119C6.49923 8.03305 6.57707 7.95426 6.67826 7.95426H8.45449L8.21109 8.2553C8.04763 8.44868 8.09433 8.72086 8.30449 8.86411ZM17.5726 18.9053H16.0898L16.3159 19.185C16.4716 19.3784 16.4327 19.6505 16.2225 19.7938C16.1213 19.8582 16.0201 19.8869 15.9267 19.8869C15.7789 19.8869 15.6387 19.8296 15.5453 19.7078L14.5957 18.5332C14.4634 18.3684 14.4711 18.1393 14.619 17.9888L15.5687 16.9718C15.7399 16.7856 16.0357 16.7641 16.2381 16.9216C16.4405 17.0792 16.456 17.3514 16.2926 17.5376L16.0994 17.7449H17.5804C17.7905 17.7449 17.9618 17.5874 17.9618 17.394V8.12583C17.9618 8.03272 17.8761 7.96109 17.7827 7.96109H12.6532C12.3029 7.96109 12.0227 7.70325 12.0227 7.38094C12.0227 7.05863 12.3029 6.80078 12.6532 6.80078H17.7827C18.5845 6.80078 19.2305 7.39526 19.2305 8.13299V17.4012C19.215 18.2248 18.4833 18.9053 17.5726 18.9053ZM8.71496 11.2843H14.7396C15.0899 11.2843 15.3701 11.0265 15.3701 10.7042C15.3701 10.3819 15.0899 10.124 14.7396 10.124H8.71496C8.36469 10.124 8.08447 10.3819 8.08447 10.7042C8.08447 11.0265 8.36469 11.2843 8.71496 11.2843ZM14.7396 13.383H8.71496C8.36469 13.383 8.08447 13.1251 8.08447 12.8028C8.08447 12.4805 8.36469 12.2227 8.71496 12.2227H14.7396C15.0899 12.2227 15.3701 12.4805 15.3701 12.8028C15.3701 13.1251 15.0899 13.383 14.7396 13.383ZM8.71496 15.4816H11.6806C12.0309 15.4816 12.3111 15.2166 12.3111 14.9014C12.3111 14.5791 12.0309 14.3213 11.6806 14.3213H8.71496C8.36469 14.3213 8.08447 14.5791 8.08447 14.9014C8.08447 15.2238 8.36469 15.4816 8.71496 15.4816Z" fill="#178733"/>
</g>
</g>
</g>
<defs>
<clipPath id="clip0_29_333">
<rect width="14" height="14" fill="white" transform="translate(5.23047 5.88672)"/>
</clipPath>
<clipPath id="clip1_29_333">
<rect width="14" height="14" fill="white" transform="translate(5.23047 5.88672)"/>
</clipPath>
<clipPath id="clip2_29_333">
<rect width="14" height="14" fill="white" transform="translate(5.23047 5.88672)"/>
</clipPath>
</defs>
</svg>
