<svg width="31" height="31" viewBox="0 0 31 31" fill="none" xmlns="http://www.w3.org/2000/svg">
<g clip-path="url(#clip0_29_58)">
<path d="M24.8437 4.25592H19.3717C18.8218 2.73735 17.3817 1.6377 15.6799 1.6377C13.9781 1.6377 12.5381 2.73735 11.9883 4.25592H6.51617C5.07615 4.25592 3.89795 5.43411 3.89795 6.87413V27.8199C3.89795 29.2599 5.07615 30.4381 6.51617 30.4381H24.8437C26.2838 30.4381 27.462 29.2599 27.462 27.8199V6.87413C27.462 5.43411 26.2838 4.25592 24.8437 4.25592ZM15.6799 4.25592C16.3999 4.25592 16.9891 4.84502 16.9891 5.56503C16.9891 6.28504 16.3999 6.87413 15.6799 6.87413C14.9599 6.87413 14.3708 6.28504 14.3708 5.56503C14.3708 4.84502 14.9599 4.25592 15.6799 4.25592ZM24.8437 27.8199H6.51617V6.87413H9.13438V10.8015H22.2255V6.87413H24.8437V27.8199Z" fill="#499557"/>
</g>
<defs>
<clipPath id="clip0_29_58">
<rect width="30" height="30" fill="white" transform="translate(0.800293 0.886719)"/>
</clipPath>
</defs>
</svg>
