<svg width="24" height="25" viewBox="0 0 24 25" fill="none" xmlns="http://www.w3.org/2000/svg">
<rect x="0.000488281" y="0.886719" width="24" height="24" rx="12" fill="#F27C0E" fill-opacity="0.1"/>
<g clip-path="url(#clip0_29_357)">
<g clip-path="url(#clip1_29_357)">
<g clip-path="url(#clip2_29_357)">
<path fill-rule="evenodd" clip-rule="evenodd" d="M12.5271 19.8863H7.21655C5.99389 19.8863 5.00049 18.9171 5.00049 17.7242V8.05668C5.00049 6.86377 5.99389 5.89453 7.21655 5.89453H12.5271C13.7497 5.89453 14.7431 6.86377 14.7431 8.05668V8.06496C14.7431 8.43775 14.429 8.74426 14.0469 8.74426C13.6648 8.74426 13.3507 8.43775 13.3507 8.06496V8.05668C13.3507 7.60934 12.9771 7.25312 12.5271 7.25312H7.21655C6.75805 7.25312 6.39296 7.61762 6.39296 8.05668V17.7242C6.39296 18.1715 6.76654 18.5277 7.21655 18.5277H12.5271C12.9856 18.5277 13.3507 18.1632 13.3507 17.7242V16.407C13.3507 16.0342 13.6648 15.7277 14.0469 15.7277C14.429 15.7277 14.7431 16.0342 14.7431 16.407V17.7242C14.7431 18.9171 13.7497 19.8863 12.5271 19.8863ZM15.9527 15.2214C14.2715 15.2214 12.9045 13.8877 12.9045 12.2474C12.9045 10.6072 14.2715 9.27344 15.9527 9.27344C17.6338 9.27344 19.0008 10.6072 19.0008 12.2474C19.0008 13.1004 18.6312 13.8705 18.0399 14.4132L18.7782 15.3296C18.965 15.5616 18.9226 15.9012 18.6764 16.0917C18.5745 16.1663 18.4556 16.2077 18.3367 16.2077C18.1754 16.2077 18.0141 16.1332 17.9037 16.0006L17.1007 15.0026C16.7463 15.1436 16.3586 15.2214 15.9527 15.2214ZM15.9527 10.5326C14.9847 10.5326 14.1951 11.303 14.1951 12.2474C14.1951 13.1918 14.9847 13.9622 15.9527 13.9622C16.9206 13.9622 17.7103 13.1918 17.7103 12.2474C17.7103 11.303 16.9291 10.5326 15.9527 10.5326Z" fill="#F27C0E"/>
</g>
</g>
</g>
<defs>
<clipPath id="clip0_29_357">
<rect width="14" height="14" fill="white" transform="translate(5.00049 5.88672)"/>
</clipPath>
<clipPath id="clip1_29_357">
<rect width="14" height="14" fill="white" transform="translate(5.00049 5.88672)"/>
</clipPath>
<clipPath id="clip2_29_357">
<rect width="14" height="14" fill="white" transform="translate(5.00049 5.88672)"/>
</clipPath>
</defs>
</svg>
