<svg width="24" height="25" viewBox="0 0 24 25" fill="none" xmlns="http://www.w3.org/2000/svg">
<g clip-path="url(#clip0_29_389)">
<g clip-path="url(#clip1_29_389)">
<g clip-path="url(#clip2_29_389)">
<path d="M12.0005 24.6865C18.6279 24.6865 24.0005 19.3139 24.0005 12.6865C24.0005 6.05911 18.6279 0.686523 12.0005 0.686523C5.37307 0.686523 0.000488281 6.05911 0.000488281 12.6865C0.000488281 19.3139 5.37307 24.6865 12.0005 24.6865Z" fill="#F2B518"/>
<path fill-rule="evenodd" clip-rule="evenodd" d="M7.47434 7.43684C7.56177 7.30949 7.70632 7.2334 7.86078 7.2334H15.6034C15.7618 7.2334 15.9095 7.3134 15.9961 7.44607L17.8821 10.3378C17.9867 10.4982 17.9832 10.7061 17.8734 10.8629L12.2153 18.9398C12.1287 19.0634 11.988 19.1378 11.8371 19.1396C11.6862 19.1415 11.5437 19.0705 11.4541 18.9491L5.49822 10.8721C5.37971 10.7114 5.37602 10.4932 5.48905 10.3286L7.47434 7.43684ZM7.86078 8.53034L8.95568 10.1251H6.76589L7.86078 8.53034ZM6.80355 11.0627L10.8161 16.5042L9.47859 11.0627H6.80355ZM10.7365 10.1251L11.8314 8.53034L12.9263 10.1251H10.7365ZM13.2188 11.0627L11.8314 16.7071L10.444 11.0627H13.2188ZM12.8844 16.3507L14.1842 11.0627H16.5888L12.8844 16.3507ZM16.6241 10.1251H14.6573L15.6141 8.57661L16.6241 10.1251ZM14.7628 8.1709H12.7218L13.796 9.73559L14.7628 8.1709ZM10.941 8.1709H8.75118L9.84608 9.76571L10.941 8.1709Z" fill="#252525"/>
</g>
</g>
</g>
<defs>
<clipPath id="clip0_29_389">
<rect width="24" height="24" fill="white" transform="translate(0.000488281 0.686523)"/>
</clipPath>
<clipPath id="clip1_29_389">
<rect width="24" height="24" fill="white" transform="translate(0.000488281 0.686523)"/>
</clipPath>
<clipPath id="clip2_29_389">
<rect width="24" height="24" fill="white" transform="translate(0.000488281 0.686523)"/>
</clipPath>
</defs>
</svg>
