<svg width="24" height="25" viewBox="0 0 24 25" fill="none" xmlns="http://www.w3.org/2000/svg">
<rect x="0.000488281" y="0.886719" width="24" height="24" rx="12" fill="#319DFF" fill-opacity="0.1"/>
<g clip-path="url(#clip0_29_349)">
<g clip-path="url(#clip1_29_349)">
<g clip-path="url(#clip2_29_349)">
<path fill-rule="evenodd" clip-rule="evenodd" d="M10.6729 16.4185C10.694 16.4188 10.7155 16.4188 10.7369 16.4188C12.0354 16.4188 14.6863 15.2552 15.7503 13.6586C15.9667 13.3338 15.8765 12.8918 15.5519 12.6753C15.2273 12.4588 14.7855 12.549 14.5691 12.8738C13.9018 13.857 12.2427 14.6869 11.2509 14.9214C11.1517 13.1985 11.4042 8.59804 16.9044 7.14573C16.7782 7.92149 16.5528 9.0671 16.111 10.2037C16.0659 10.1586 16.0118 10.1225 15.9577 10.0864L15.3896 9.6805C15.065 9.45499 14.6232 9.52715 14.3978 9.85189C14.1723 10.1766 14.2445 10.6186 14.5691 10.8441L14.6951 10.934C14.8393 11.0365 14.9792 11.1361 15.1191 11.2411C15.365 11.4256 15.6175 11.6035 15.8765 11.7861L16.0118 11.8815L16.697 12.3506L17.0577 11.6019C18.221 9.17655 18.4223 6.48874 18.4367 6.29589L18.4373 6.28877L18.5004 5.38672L17.6077 5.54909C14.7855 6.04522 12.6846 7.27202 11.3591 9.17535C9.30799 12.1323 9.89048 15.6323 9.92483 15.829L9.09481 16.9059C8.94153 17.1133 8.9776 17.411 9.18498 17.5734C9.27515 17.6365 9.37433 17.6726 9.47352 17.6726C9.60877 17.6726 9.75304 17.6095 9.85222 17.4832L10.6729 16.4185ZM13.5525 20.3692H6.51037C5.95133 20.3692 5.50049 19.9182 5.50049 19.3589C5.50049 18.7996 5.95133 18.3486 6.51037 18.3486H13.5525C14.1115 18.3486 14.5623 18.7996 14.5623 19.3589C14.5623 19.9092 14.1115 20.3692 13.5525 20.3692Z" fill="#319DFF"/>
</g>
</g>
</g>
<defs>
<clipPath id="clip0_29_349">
<rect width="15" height="15" fill="white" transform="translate(4.50049 5.38672)"/>
</clipPath>
<clipPath id="clip1_29_349">
<rect width="15" height="15" fill="white" transform="translate(4.50049 5.38672)"/>
</clipPath>
<clipPath id="clip2_29_349">
<rect width="14" height="15" fill="white" transform="translate(5.00049 5.38672)"/>
</clipPath>
</defs>
</svg>
