<svg width="25" height="25" viewBox="0 0 25 25" fill="none" xmlns="http://www.w3.org/2000/svg">
<path d="M19.4899 13.6665C19.5299 13.3465 19.5599 13.0265 19.5599 12.6865C19.5599 12.3465 19.5299 12.0265 19.4899 11.7065L21.5999 10.0565C21.7899 9.90652 21.8399 9.63652 21.7199 9.41652L19.7199 5.95652C19.6299 5.79652 19.4599 5.70652 19.2799 5.70652C19.2199 5.70652 19.1599 5.71652 19.1099 5.73652L16.6199 6.73652C16.0999 6.33652 15.5399 6.00652 14.9299 5.75652L14.5499 3.10652C14.5199 2.86652 14.3099 2.68652 14.0599 2.68652H10.0599C9.8099 2.68652 9.5999 2.86652 9.5699 3.10652L9.1899 5.75652C8.5799 6.00652 8.0199 6.34652 7.4999 6.73652L5.0099 5.73652C4.9499 5.71652 4.8899 5.70652 4.8299 5.70652C4.6599 5.70652 4.4899 5.79652 4.3999 5.95652L2.3999 9.41652C2.2699 9.63652 2.3299 9.90652 2.5199 10.0565L4.6299 11.7065C4.5899 12.0265 4.5599 12.3565 4.5599 12.6865C4.5599 13.0165 4.5899 13.3465 4.6299 13.6665L2.5199 15.3165C2.3299 15.4665 2.2799 15.7365 2.3999 15.9565L4.3999 19.4165C4.4899 19.5765 4.6599 19.6665 4.8399 19.6665C4.8999 19.6665 4.9599 19.6565 5.0099 19.6365L7.4999 18.6365C8.0199 19.0365 8.5799 19.3665 9.1899 19.6165L9.5699 22.2665C9.5999 22.5065 9.8099 22.6865 10.0599 22.6865H14.0599C14.3099 22.6865 14.5199 22.5065 14.5499 22.2665L14.9299 19.6165C15.5399 19.3665 16.0999 19.0265 16.6199 18.6365L19.1099 19.6365C19.1699 19.6565 19.2299 19.6665 19.2899 19.6665C19.4599 19.6665 19.6299 19.5765 19.7199 19.4165L21.7199 15.9565C21.8399 15.7365 21.7899 15.4665 21.5999 15.3165L19.4899 13.6665ZM17.5099 11.9565C17.5499 12.2665 17.5599 12.4765 17.5599 12.6865C17.5599 12.8965 17.5399 13.1165 17.5099 13.4165L17.3699 14.5465L18.2599 15.2465L19.3399 16.0865L18.6399 17.2965L17.3699 16.7865L16.3299 16.3665L15.4299 17.0465C14.9999 17.3665 14.5899 17.6065 14.1799 17.7765L13.1199 18.2065L12.9599 19.3365L12.7599 20.6865H11.3599L11.1699 19.3365L11.0099 18.2065L9.9499 17.7765C9.5199 17.5965 9.1199 17.3665 8.7199 17.0665L7.8099 16.3665L6.7499 16.7965L5.4799 17.3065L4.7799 16.0965L5.8599 15.2565L6.7499 14.5565L6.6099 13.4265C6.5799 13.1165 6.5599 12.8865 6.5599 12.6865C6.5599 12.4865 6.5799 12.2565 6.6099 11.9565L6.7499 10.8265L5.8599 10.1265L4.7799 9.28652L5.4799 8.07652L6.7499 8.58652L7.7899 9.00652L8.6899 8.32652C9.1199 8.00652 9.5299 7.76652 9.9399 7.59652L10.9999 7.16652L11.1599 6.03652L11.3599 4.68652H12.7499L12.9399 6.03652L13.0999 7.16652L14.1599 7.59652C14.5899 7.77652 14.9899 8.00652 15.3899 8.30652L16.2999 9.00652L17.3599 8.57652L18.6299 8.06652L19.3299 9.27652L18.2599 10.1265L17.3699 10.8265L17.5099 11.9565ZM12.0599 8.68652C9.8499 8.68652 8.0599 10.4765 8.0599 12.6865C8.0599 14.8965 9.8499 16.6865 12.0599 16.6865C14.2699 16.6865 16.0599 14.8965 16.0599 12.6865C16.0599 10.4765 14.2699 8.68652 12.0599 8.68652ZM12.0599 14.6865C10.9599 14.6865 10.0599 13.7865 10.0599 12.6865C10.0599 11.5865 10.9599 10.6865 12.0599 10.6865C13.1599 10.6865 14.0599 11.5865 14.0599 12.6865C14.0599 13.7865 13.1599 14.6865 12.0599 14.6865Z" fill="#5F6368"/>
</svg>
