<svg width="24" height="25" viewBox="0 0 24 25" fill="none" xmlns="http://www.w3.org/2000/svg">
<rect x="0.000488281" y="0.886719" width="24" height="24" rx="12" fill="#8051FF" fill-opacity="0.1"/>
<g clip-path="url(#clip0_29_365)">
<g clip-path="url(#clip1_29_365)">
<g clip-path="url(#clip2_29_365)">
<path fill-rule="evenodd" clip-rule="evenodd" d="M18.3948 9.01295H5.61529C4.99898 9.01295 4.50049 8.44173 4.50049 7.73548C4.50049 7.02923 4.99898 6.45801 5.61529 6.45801H18.3857C19.002 6.45801 19.5005 7.02923 19.5005 7.73548C19.5005 8.44173 19.002 9.01295 18.3948 9.01295ZM18.3948 14.164H5.61529C4.99898 14.164 4.50049 13.5928 4.50049 12.8866C4.50049 12.1803 4.99898 11.6091 5.61529 11.6091H18.3857C19.002 11.6091 19.5005 12.1803 19.5005 12.8866C19.5005 13.5928 19.002 14.164 18.3948 14.164ZM5.61529 19.3152H13.0201C13.6364 19.3152 14.1259 18.7439 14.1259 18.0377C14.1259 17.3314 13.6274 16.7602 13.0111 16.7602H5.61529C4.99898 16.7602 4.50049 17.3314 4.50049 18.0377C4.50049 18.7439 4.99898 19.3152 5.61529 19.3152Z" fill="#8051FF"/>
</g>
</g>
</g>
<defs>
<clipPath id="clip0_29_365">
<rect width="15" height="15" fill="white" transform="translate(4.50049 5.38672)"/>
</clipPath>
<clipPath id="clip1_29_365">
<rect width="15" height="15" fill="white" transform="translate(4.50049 5.38672)"/>
</clipPath>
<clipPath id="clip2_29_365">
<rect width="15" height="12.8571" fill="white" transform="translate(4.50049 6.45801)"/>
</clipPath>
</defs>
</svg>
