<svg width="25" height="25" viewBox="0 0 25 25" fill="none" xmlns="http://www.w3.org/2000/svg">
<g opacity="0.3">
<path d="M12.0501 2.88672C6.53006 2.88672 2.06006 7.36672 2.06006 12.8867C2.06006 18.4067 6.53006 22.8867 12.0501 22.8867C17.5801 22.8867 22.0601 18.4067 22.0601 12.8867C22.0601 7.36672 17.5801 2.88672 12.0501 2.88672ZM12.0601 20.8867C7.64006 20.8867 4.06006 17.3067 4.06006 12.8867C4.06006 8.46672 7.64006 4.88672 12.0601 4.88672C16.4801 4.88672 20.0601 8.46672 20.0601 12.8867C20.0601 17.3067 16.4801 20.8867 12.0601 20.8867ZM15.5601 11.8867C16.3901 11.8867 17.0601 11.2167 17.0601 10.3867C17.0601 9.55672 16.3901 8.88672 15.5601 8.88672C14.7301 8.88672 14.0601 9.55672 14.0601 10.3867C14.0601 11.2167 14.7301 11.8867 15.5601 11.8867ZM8.56006 11.8867C9.39006 11.8867 10.0601 11.2167 10.0601 10.3867C10.0601 9.55672 9.39006 8.88672 8.56006 8.88672C7.73006 8.88672 7.06006 9.55672 7.06006 10.3867C7.06006 11.2167 7.73006 11.8867 8.56006 11.8867ZM12.0601 18.3867C14.3901 18.3867 16.3701 16.9267 17.1701 14.8867H6.95006C7.75006 16.9267 9.73006 18.3867 12.0601 18.3867Z" fill="#5F6368"/>
</g>
</svg>
