<svg width="24" height="25" viewBox="0 0 24 25" fill="none" xmlns="http://www.w3.org/2000/svg">
<g clip-path="url(#clip0_29_373)">
<g clip-path="url(#clip1_29_373)">
<g clip-path="url(#clip2_29_373)">
<path d="M11.8919 19.6559L15.186 10.7944H16.7064L20.0005 19.6559H18.4801L17.72 17.4036H14.2086L13.4123 19.6559H11.8919ZM14.643 16.1113H17.2494L15.9824 12.4559H15.91L14.643 16.1113ZM6.17244 17.4405L5.15886 16.4067L8.81497 12.6775C8.35645 12.1605 7.95536 11.6252 7.61171 11.0713C7.26758 10.5175 6.96882 9.93287 6.71542 9.31749H8.23578C8.45298 9.76057 8.68538 10.1606 8.93298 10.5175C9.1801 10.8744 9.47862 11.2498 9.82854 11.6436C10.3595 11.0529 10.7999 10.4468 11.1498 9.82555C11.4997 9.20377 11.7954 8.5421 12.0367 7.84057H4.00049V6.36364H9.06836V4.88672H10.5163V6.36364H15.5842V7.84057H13.4847C13.2313 8.71441 12.8874 9.56364 12.453 10.3883C12.0186 11.2129 11.4816 11.9882 10.8421 12.7144L12.5797 14.5236L12.0367 16.0375L9.79235 13.7482L6.17244 17.4405Z" fill="#252525"/>
<path opacity="0.1" d="M24.0005 12.8867C24.0005 6.2593 18.6279 0.886719 12.0005 0.886719C5.37307 0.886719 0.000488281 6.2593 0.000488281 12.8867C0.000488281 19.5141 5.37307 24.8867 12.0005 24.8867C18.6279 24.8867 24.0005 19.5141 24.0005 12.8867Z" fill="#252525"/>
</g>
</g>
</g>
<defs>
<clipPath id="clip0_29_373">
<rect width="24" height="24" fill="white" transform="translate(0.000488281 0.886719)"/>
</clipPath>
<clipPath id="clip1_29_373">
<rect width="24" height="24" fill="white" transform="translate(0.000488281 0.886719)"/>
</clipPath>
<clipPath id="clip2_29_373">
<rect width="24" height="24" fill="white" transform="translate(0.000488281 0.886719)"/>
</clipPath>
</defs>
</svg>
