<svg width="28" height="28" viewBox="0 0 28 28" fill="none" xmlns="http://www.w3.org/2000/svg">
<g clip-path="url(#clip0_29_72)">
<path d="M21.9689 11.4815C21.2039 7.60027 17.7952 4.68652 13.7002 4.68652C10.4489 4.68652 7.6252 6.53152 6.21895 9.23152C2.8327 9.59152 0.200195 12.4603 0.200195 15.9365C0.200195 19.6603 3.22645 22.6865 6.9502 22.6865H21.5752C24.6802 22.6865 27.2002 20.1665 27.2002 17.0615C27.2002 14.0915 24.8939 11.684 21.9689 11.4815ZM21.5752 20.4365H6.9502C4.46395 20.4365 2.4502 18.4228 2.4502 15.9365C2.4502 13.6303 4.17145 11.7065 6.4552 11.4703L7.65895 11.3465L8.22145 10.2778C9.2902 8.21902 11.3827 6.93652 13.7002 6.93652C16.6477 6.93652 19.1902 9.02902 19.7639 11.9203L20.1014 13.6078L21.8227 13.7315C23.5777 13.844 24.9502 15.3178 24.9502 17.0615C24.9502 18.9178 23.4314 20.4365 21.5752 20.4365ZM9.2002 14.8115H12.0689V18.1865H15.3314V14.8115H18.2002L13.7002 10.3115L9.2002 14.8115Z" fill="#5F6368"/>
</g>
<defs>
<clipPath id="clip0_29_72">
<rect width="27" height="27" fill="white" transform="translate(0.200195 0.186523)"/>
</clipPath>
</defs>
</svg>
